<svg width="814" height="258" viewBox="0 0 814 258" fill="none" xmlns="http://www.w3.org/2000/svg">
<path d="M283.427 161.172C278.326 161.172 273.85 160.046 269.999 157.796C266.198 155.545 263.248 152.395 261.147 148.344C259.047 144.243 257.997 139.442 257.997 133.941C257.997 128.389 259.047 123.588 261.147 119.538C263.248 115.487 266.198 112.361 269.999 110.161C273.8 107.91 278.276 106.785 283.427 106.785C288.578 106.785 293.054 107.91 296.855 110.161C300.656 112.361 303.606 115.487 305.707 119.538C307.807 123.588 308.858 128.364 308.858 133.866C308.858 139.417 307.807 144.243 305.707 148.344C303.606 152.395 300.656 155.545 296.855 157.796C293.054 160.046 288.578 161.172 283.427 161.172ZM283.427 152.92C288.278 152.92 292.054 151.244 294.754 147.894C297.455 144.543 298.805 139.892 298.805 133.941C298.805 127.939 297.455 123.288 294.754 119.988C292.104 116.687 288.328 115.037 283.427 115.037C278.576 115.037 274.8 116.687 272.1 119.988C269.399 123.288 268.049 127.939 268.049 133.941C268.049 139.892 269.399 144.543 272.1 147.894C274.8 151.244 278.576 152.92 283.427 152.92ZM334.675 161.172C330.824 161.172 327.473 160.396 324.623 158.846C321.772 157.246 319.572 154.995 318.021 152.095C316.471 149.194 315.696 145.793 315.696 141.892C315.696 137.992 316.471 134.641 318.021 131.84C319.572 128.99 321.772 126.814 324.623 125.314C327.473 123.763 330.824 122.988 334.675 122.988C336.325 122.988 338.101 123.213 340.001 123.663C341.951 124.114 343.777 124.864 345.477 125.914C346.477 126.514 347.052 127.289 347.203 128.239C347.403 129.19 347.278 130.065 346.827 130.865C346.427 131.665 345.802 132.24 344.952 132.59C344.152 132.94 343.227 132.815 342.176 132.215C339.876 130.915 337.65 130.265 335.5 130.265C332.249 130.265 329.724 131.29 327.923 133.341C326.173 135.341 325.298 138.217 325.298 141.967C325.298 145.668 326.173 148.594 327.923 150.744C329.724 152.845 332.249 153.895 335.5 153.895C337.65 153.895 339.876 153.27 342.176 152.02C343.227 151.419 344.152 151.294 344.952 151.644C345.752 151.995 346.327 152.595 346.677 153.445C347.027 154.245 347.102 155.12 346.902 156.07C346.702 156.971 346.127 157.721 345.177 158.321C343.527 159.321 341.776 160.046 339.926 160.496C338.076 160.946 336.325 161.172 334.675 161.172ZM370.055 161.172C360.353 161.172 355.502 156.371 355.502 146.768V130.79H351.601C349.1 130.79 347.85 129.615 347.85 127.264C347.85 124.914 349.1 123.738 351.601 123.738H355.502V116.912C355.502 113.761 357.077 112.186 360.228 112.186C363.328 112.186 364.879 113.761 364.879 116.912V123.738H372.83C375.331 123.738 376.581 124.914 376.581 127.264C376.581 129.615 375.331 130.79 372.83 130.79H364.879V146.243C364.879 148.644 365.404 150.444 366.454 151.644C367.504 152.845 369.205 153.445 371.555 153.445C372.405 153.445 373.156 153.37 373.806 153.22C374.456 153.07 375.031 152.97 375.531 152.92C376.131 152.87 376.631 153.07 377.031 153.52C377.431 153.92 377.632 154.77 377.632 156.07C377.632 157.071 377.456 157.971 377.106 158.771C376.806 159.521 376.231 160.046 375.381 160.346C374.731 160.546 373.881 160.721 372.83 160.871C371.78 161.072 370.855 161.172 370.055 161.172ZM394.119 161.172C391.469 161.172 389.093 160.671 386.993 159.671C384.942 158.621 383.317 157.221 382.117 155.47C380.966 153.72 380.391 151.745 380.391 149.544C380.391 146.843 381.091 144.718 382.492 143.168C383.892 141.567 386.168 140.417 389.318 139.717C392.469 139.017 396.695 138.667 401.996 138.667H404.621V137.091C404.621 134.591 404.071 132.79 402.971 131.69C401.871 130.59 400.021 130.04 397.42 130.04C395.97 130.04 394.394 130.215 392.694 130.565C391.044 130.915 389.293 131.515 387.443 132.365C386.243 132.915 385.242 132.99 384.442 132.59C383.642 132.14 383.092 131.465 382.792 130.565C382.542 129.615 382.592 128.665 382.942 127.714C383.342 126.764 384.117 126.064 385.267 125.614C387.568 124.664 389.768 123.989 391.869 123.588C394.019 123.188 395.97 122.988 397.72 122.988C403.071 122.988 407.047 124.239 409.648 126.739C412.248 129.19 413.548 133.015 413.548 138.217V156.22C413.548 159.421 412.098 161.022 409.197 161.022C406.247 161.022 404.772 159.421 404.772 156.22V154.57C403.921 156.621 402.571 158.246 400.721 159.446C398.87 160.596 396.67 161.172 394.119 161.172ZM396.07 154.72C398.52 154.72 400.546 153.87 402.146 152.17C403.796 150.469 404.621 148.319 404.621 145.718V144.068H402.071C397.37 144.068 394.094 144.443 392.244 145.193C390.443 145.893 389.543 147.194 389.543 149.094C389.543 150.744 390.118 152.095 391.269 153.145C392.419 154.195 394.019 154.72 396.07 154.72ZM457.259 161.022C453.209 161.022 450.158 159.921 448.107 157.721C446.107 155.52 445.107 152.37 445.107 148.269V127.714H439.556C438.105 127.714 437.38 127.089 437.38 125.839C437.38 124.639 438.105 124.039 439.556 124.039H445.107V114.662C445.107 113.111 445.882 112.336 447.432 112.336C448.933 112.336 449.683 113.111 449.683 114.662V124.039H459.81C461.21 124.039 461.91 124.639 461.91 125.839C461.91 127.089 461.21 127.714 459.81 127.714H449.683V147.669C449.683 150.719 450.308 153.045 451.558 154.645C452.808 156.245 454.884 157.046 457.784 157.046C458.785 157.046 459.61 156.946 460.26 156.746C460.91 156.496 461.485 156.371 461.985 156.371C462.886 156.371 463.336 156.996 463.336 158.246C463.336 158.646 463.236 159.046 463.036 159.446C462.886 159.796 462.586 160.046 462.135 160.196C461.585 160.396 460.835 160.571 459.885 160.721C458.935 160.921 458.06 161.022 457.259 161.022ZM484.121 161.022C478.52 161.022 474.094 159.371 470.843 156.07C467.642 152.72 466.042 148.144 466.042 142.342C466.042 138.592 466.767 135.291 468.218 132.44C469.668 129.59 471.668 127.364 474.219 125.764C476.819 124.164 479.795 123.363 483.146 123.363C487.997 123.363 491.773 124.939 494.473 128.089C497.174 131.24 498.524 135.566 498.524 141.067C498.524 142.468 497.824 143.168 496.424 143.168H470.543C470.693 147.669 471.918 151.144 474.219 153.595C476.569 155.995 479.82 157.196 483.971 157.196C485.821 157.196 487.597 156.971 489.297 156.521C491.048 156.02 492.748 155.145 494.398 153.895C495.298 153.295 496.074 153.17 496.724 153.52C497.374 153.82 497.724 154.345 497.774 155.095C497.874 155.795 497.499 156.446 496.649 157.046C495.048 158.346 493.098 159.346 490.797 160.046C488.547 160.696 486.321 161.022 484.121 161.022ZM483.221 127.039C479.42 127.039 476.444 128.239 474.294 130.64C472.193 132.99 470.968 136.041 470.618 139.792H494.398C494.298 135.791 493.298 132.665 491.398 130.415C489.497 128.164 486.772 127.039 483.221 127.039ZM522.705 161.022C519.154 161.022 516.104 160.246 513.553 158.696C511.003 157.096 509.027 154.87 507.627 152.02C506.277 149.119 505.601 145.768 505.601 141.967C505.601 136.216 507.102 131.69 510.102 128.389C513.153 125.039 517.354 123.363 522.705 123.363C524.556 123.363 526.456 123.688 528.406 124.339C530.407 124.989 532.182 126.014 533.732 127.414C534.383 127.914 534.633 128.515 534.483 129.215C534.333 129.915 533.933 130.44 533.282 130.79C532.682 131.09 532.007 130.94 531.257 130.34C529.857 129.19 528.431 128.414 526.981 128.014C525.531 127.564 524.155 127.339 522.855 127.339C518.804 127.339 515.679 128.615 513.478 131.165C511.328 133.716 510.252 137.341 510.252 142.042C510.252 146.743 511.328 150.444 513.478 153.145C515.679 155.795 518.804 157.121 522.855 157.121C524.155 157.121 525.531 156.921 526.981 156.521C528.431 156.07 529.857 155.27 531.257 154.12C532.057 153.52 532.732 153.395 533.282 153.745C533.883 154.045 534.233 154.545 534.333 155.245C534.483 155.945 534.258 156.546 533.657 157.046C532.107 158.446 530.357 159.471 528.406 160.121C526.456 160.721 524.556 161.022 522.705 161.022ZM544.609 160.871C543.058 160.871 542.283 160.096 542.283 158.546V109.41C542.283 107.86 543.058 107.085 544.609 107.085C546.109 107.085 546.859 107.86 546.859 109.41V130.34C548.109 128.039 549.835 126.314 552.035 125.164C554.286 123.964 556.761 123.363 559.462 123.363C568.114 123.363 572.44 128.064 572.44 137.466V158.546C572.44 160.096 571.689 160.871 570.189 160.871C568.639 160.871 567.864 160.096 567.864 158.546V137.842C567.864 134.241 567.139 131.59 565.688 129.89C564.238 128.189 561.937 127.339 558.787 127.339C555.186 127.339 552.285 128.465 550.085 130.715C547.934 132.915 546.859 135.891 546.859 139.642V158.546C546.859 160.096 546.109 160.871 544.609 160.871ZM586.585 160.871C585.035 160.871 584.26 160.096 584.26 158.546V125.914C584.26 124.314 585.035 123.513 586.585 123.513C588.036 123.513 588.761 124.314 588.761 125.914V130.565C589.961 128.164 591.687 126.364 593.937 125.164C596.188 123.964 598.688 123.363 601.439 123.363C610.091 123.363 614.416 128.064 614.416 137.466V158.546C614.416 160.096 613.666 160.871 612.166 160.871C610.616 160.871 609.84 160.096 609.84 158.546V137.842C609.84 134.241 609.115 131.59 607.665 129.89C606.215 128.189 603.914 127.339 600.764 127.339C597.163 127.339 594.262 128.465 592.062 130.715C589.911 132.915 588.836 135.891 588.836 139.642V158.546C588.836 160.096 588.086 160.871 586.585 160.871ZM640.715 161.022C637.314 161.022 634.364 160.271 631.863 158.771C629.362 157.221 627.412 155.045 626.012 152.245C624.661 149.394 623.986 146.043 623.986 142.192C623.986 138.392 624.661 135.091 626.012 132.29C627.412 129.44 629.362 127.239 631.863 125.689C634.364 124.139 637.314 123.363 640.715 123.363C644.166 123.363 647.141 124.139 649.642 125.689C652.142 127.239 654.068 129.44 655.418 132.29C656.818 135.091 657.518 138.392 657.518 142.192C657.518 146.043 656.818 149.394 655.418 152.245C654.068 155.045 652.142 157.221 649.642 158.771C647.141 160.271 644.166 161.022 640.715 161.022ZM640.715 157.196C644.416 157.196 647.366 155.895 649.567 153.295C651.767 150.644 652.867 146.943 652.867 142.192C652.867 137.441 651.767 133.766 649.567 131.165C647.366 128.565 644.416 127.264 640.715 127.264C637.014 127.264 634.063 128.565 631.863 131.165C629.713 133.766 628.637 137.441 628.637 142.192C628.637 146.943 629.713 150.644 631.863 153.295C634.063 155.895 637.014 157.196 640.715 157.196ZM677.763 161.022C674.413 161.022 671.812 159.996 669.962 157.946C668.161 155.845 667.261 152.845 667.261 148.944V109.41C667.261 107.86 668.036 107.085 669.587 107.085C671.087 107.085 671.837 107.86 671.837 109.41V148.419C671.837 154.17 674.088 157.046 678.589 157.046C679.039 157.046 679.439 157.021 679.789 156.971C680.189 156.921 680.564 156.896 680.914 156.896C681.364 156.846 681.689 156.946 681.889 157.196C682.139 157.396 682.264 157.846 682.264 158.546C682.264 159.846 681.514 160.621 680.014 160.871C679.664 160.972 679.289 161.022 678.889 161.022C678.489 161.022 678.114 161.022 677.763 161.022ZM702.764 161.022C699.364 161.022 696.413 160.271 693.912 158.771C691.412 157.221 689.461 155.045 688.061 152.245C686.711 149.394 686.036 146.043 686.036 142.192C686.036 138.392 686.711 135.091 688.061 132.29C689.461 129.44 691.412 127.239 693.912 125.689C696.413 124.139 699.364 123.363 702.764 123.363C706.215 123.363 709.191 124.139 711.691 125.689C714.192 127.239 716.117 129.44 717.468 132.29C718.868 135.091 719.568 138.392 719.568 142.192C719.568 146.043 718.868 149.394 717.468 152.245C716.117 155.045 714.192 157.221 711.691 158.771C709.191 160.271 706.215 161.022 702.764 161.022ZM702.764 157.196C706.465 157.196 709.416 155.895 711.616 153.295C713.817 150.644 714.917 146.943 714.917 142.192C714.917 137.441 713.817 133.766 711.616 131.165C709.416 128.565 706.465 127.264 702.764 127.264C699.064 127.264 696.113 128.565 693.912 131.165C691.762 133.766 690.687 137.441 690.687 142.192C690.687 146.943 691.762 150.644 693.912 153.295C696.113 155.895 699.064 157.196 702.764 157.196ZM745.139 174.524C742.439 174.524 739.813 174.174 737.262 173.474C734.762 172.824 732.486 171.749 730.436 170.249C729.736 169.798 729.436 169.223 729.536 168.523C729.636 167.823 729.961 167.248 730.511 166.798C731.061 166.398 731.661 166.398 732.311 166.798C734.562 168.298 736.662 169.323 738.613 169.873C740.613 170.424 742.739 170.699 744.989 170.699C748.64 170.699 751.415 169.698 753.316 167.698C755.216 165.698 756.166 162.797 756.166 158.996V151.945C755.116 154.345 753.441 156.22 751.14 157.571C748.89 158.921 746.314 159.596 743.414 159.596C740.013 159.596 737.087 158.846 734.637 157.346C732.236 155.795 730.361 153.67 729.011 150.969C727.71 148.219 727.06 145.043 727.06 141.442C727.06 137.842 727.71 134.691 729.011 131.99C730.361 129.29 732.236 127.189 734.637 125.689C737.087 124.139 740.013 123.363 743.414 123.363C746.314 123.363 748.865 124.039 751.065 125.389C753.316 126.689 754.991 128.515 756.091 130.865V125.914C756.091 124.314 756.842 123.513 758.342 123.513C759.842 123.513 760.592 124.314 760.592 125.914V158.321C760.592 169.123 755.441 174.524 745.139 174.524ZM743.939 155.695C747.69 155.695 750.665 154.42 752.866 151.87C755.066 149.269 756.166 145.793 756.166 141.442C756.166 137.091 755.066 133.641 752.866 131.09C750.665 128.54 747.69 127.264 743.939 127.264C740.138 127.264 737.137 128.54 734.937 131.09C732.786 133.641 731.711 137.091 731.711 141.442C731.711 145.793 732.786 149.269 734.937 151.87C737.137 154.42 740.138 155.695 743.939 155.695ZM780.331 174.374C779.381 174.374 778.756 174.024 778.456 173.324C778.206 172.674 778.256 171.899 778.606 170.999L783.332 160.271L769.079 126.964C768.679 126.064 768.654 125.264 769.004 124.564C769.354 123.864 770.054 123.513 771.104 123.513C772.154 123.513 772.929 124.139 773.43 125.389L785.807 155.395L798.26 125.389C798.56 124.689 798.885 124.214 799.235 123.964C799.585 123.663 800.085 123.513 800.735 123.513C801.686 123.513 802.286 123.864 802.536 124.564C802.836 125.264 802.811 126.039 802.461 126.889L782.882 172.574C782.281 173.774 781.431 174.374 780.331 174.374Z" fill="white"/>
<path fill-rule="evenodd" clip-rule="evenodd" d="M189.869 148.634C189.936 148.514 190.004 148.393 190.07 148.273C208.339 115.335 196.447 73.8236 163.509 55.5551C130.571 37.2866 89.0595 49.1786 70.791 82.1167C70.7241 82.2373 70.6577 82.358 70.5916 82.4788L56.1333 74.4597C56.1995 74.339 56.2661 74.2183 56.3329 74.0978C79.0302 33.1747 130.605 18.3998 171.528 41.097C212.451 63.7943 227.226 115.369 204.528 156.292C204.462 156.412 204.395 156.533 204.327 156.653L189.869 148.634Z" fill="white"/>
<path d="M56.1326 74.4592L70.5907 82.4782L34.5055 147.54C32.2911 151.532 27.2595 152.974 23.267 150.759C19.2745 148.545 17.833 143.513 20.0474 139.521L56.1326 74.4592Z" fill="white"/>
<path d="M189.87 148.634L204.328 156.653L168.243 221.715C166.028 225.707 160.997 227.149 157.004 224.934C153.012 222.72 151.57 217.688 153.785 213.696L189.87 148.634Z" fill="white"/>
<path d="M86.0997 100.533C88.314 96.54 93.3457 95.0986 97.3382 97.3129C101.331 99.5273 102.772 104.559 100.558 108.551L58.4584 184.457C56.244 188.449 51.2124 189.89 47.2199 187.676C43.2274 185.462 41.7859 180.43 44.0003 176.438L86.0997 100.533Z" fill="white"/>
<path d="M119.353 118.976C121.567 114.984 126.599 113.542 130.592 115.757C134.584 117.971 136.026 123.003 133.811 126.995L85.6976 213.744C83.4832 217.736 78.4516 219.178 74.4591 216.963C70.4666 214.749 69.0251 209.717 71.2395 205.725L119.353 118.976Z" fill="white"/>
<path d="M152.607 137.42C154.821 133.427 159.853 131.986 163.845 134.2C167.838 136.415 169.279 141.446 167.065 145.439L124.965 221.344C122.751 225.336 117.719 226.778 113.727 224.564C109.734 222.349 108.293 217.318 110.507 213.325L152.607 137.42Z" fill="white"/>
</svg>
